# xmcd
#
# Track frame offsets: 
#        150
#        20471
#        43065
#        62683
#        115041
#        139251
#        151386
#        178865
#        212115
#        228403
#        240277
#
# Disc length: 3368 seconds
#
# Revision: 0
# Processed by: cddbd v1.5.2PL0 Copyright (c) Steve Scherf et al.
# Submitted via: ExactAudioCopy v1.3
#
DISCID=910d260b
DTITLE=The Blues Project  - Projections [CD2 Of 2)
DYEAR=1966
DGENRE=Blues
TTITLE0=I Can't Keep From Cryin' Sometimes
TTITLE1=Steve's Song
TTITLE2=You Can't Catch Me
TTITLE3=Two Trains Running
TTITLE4=Wake Me, Shake Me
TTITLE5=Cheryl's Going Home
TTITLE6=Flute Thing
TTITLE7=Caress Me Baby
TTITLE8=Fly Away
TTITLE9=When There's Smoke, There's Fire
TTITLE10=No Time Like The Right Time
EXTD=
EXTT0=
EXTT1=
EXTT2=
EXTT3=
EXTT4=
EXTT5=
EXTT6=
EXTT7=
EXTT8=
EXTT9=
EXTT10=
PLAYORDER=
